<?xml version="1.0"?>
<svg width="612" height="612" xmlns="http://www.w3.org/2000/svg">

 <g>
  <title>background</title>
  <rect fill="none" id="canvas_background" height="402" width="582" y="-1" x="-1"/>
 </g>
 <g>
  <title>Layer 1</title>
  <g id="svg_1">
   <path id="svg_2" d="m613,507c0,56.099976 -45.900024,102 -102,102l-408,0c-56.099998,0 -102,-45.900024 -102,-102l0,-408c0,-56.099998 45.900002,-102 102,-102l408,0c56.099976,0 102,45.900002 102,102l0,408z" fill="#f4623a"/>
   <text stroke="null" transform="matrix(2.44065 0 0 1.99863 -168.565 5.9339)" font-weight="bold" xml:space="preserve" text-anchor="start" font-family="Helvetica, Arial, sans-serif" font-size="250" id="svg_8" y="241.544593" x="116.590273" stroke-opacity="null" stroke-width="0" fill="#ffffff">L</text>
   <text font-weight="bold" transform="matrix(0.513622 0 0 0.471667 77.0348 309.696)" stroke="null" xml:space="preserve" text-anchor="start" font-family="Helvetica, Arial, sans-serif" font-size="101" id="svg_9" y="226.20758" x="356.533389" stroke-opacity="null" stroke-width="0" fill="#ffffff"/>
   <text font-weight="bold" xml:space="preserve" text-anchor="start" font-family="Helvetica, Arial, sans-serif" font-size="47" id="svg_12" y="424" x="254" fill-opacity="0.5" stroke-opacity="null" stroke-width="0" stroke="null" fill="#ffffff">INKED</text>
   <text xml:space="preserve" text-anchor="start" font-family="Helvetica, Arial, sans-serif" font-size="52" id="svg_13" y="398" x="413" fill-opacity="null" stroke-opacity="null" stroke-width="0" stroke="null" fill="#ffffff"/>
   <text font-weight="bold" xml:space="preserve" text-anchor="start" font-family="Helvetica, Arial, sans-serif" font-size="47" id="svg_14" y="424" x="407" fill-opacity="0.5" stroke-opacity="null" stroke-width="0" stroke="null" fill="#ffffff">UP</text>
   <ellipse id="svg_15" cy="413" cx="426" stroke-opacity="null" stroke-width="null" stroke="null" fill="#f2e8e8"/>
  </g>
 </g>
</svg>